<svg id="visual" viewBox="0 0 900 600" width="900" height="600" xmlns="http://www.w3.org/2000/svg" xmlns:xlink="http://www.w3.org/1999/xlink" version="1.1"><rect x="0" y="0" width="900" height="600" fill="#002233"></rect><path d="M0 433L25 434.8C50 436.7 100 440.3 150 435.5C200 430.7 250 417.3 300 398.7C350 380 400 356 450 377.7C500 399.3 550 466.7 600 467C650 467.3 700 400.7 750 398.5C800 396.3 850 458.7 875 489.8L900 521L900 601L875 601C850 601 800 601 750 601C700 601 650 601 600 601C550 601 500 601 450 601C400 601 350 601 300 601C250 601 200 601 150 601C100 601 50 601 25 601L0 601Z" fill="#0066FF" stroke-linecap="round" stroke-linejoin="miter"></path></svg>